Coordinates
version=1
nRows=7
nColumns=33
inDegrees=yes

Units are S.I. units (second, meters, Newtons, ...)
Angles are in degrees.

endheader
time	ground_thorax_rot_x	ground_thorax_rot_y	ground_thorax_rot_z	ground_thorax_tx	ground_thorax_ty	ground_thorax_tz	clav_prot_r	clav_elev_r	scapula_abduction_r	scapula_elevation_r	scapula_upward_rot_r	scapula_winging_r	shoulder_elv_r	plane_of_elev_r	axial_rot_r	elbow_flexion_r	pro_sup_r	wrist_flex_r	wrist_dev_r	clav_prot_l	clav_elev_l	scapula_abduction_l	scapula_elevation_l	scapula_upward_rot_l	scapula_winging_l	shoulder_elv_l	plane_of_elev_l	axial_rot_l	elbow_flexion_l	pro_sup_l	wrist_flex_l	wrist_dev_l
     13.85000000	    -37.77787767	     -9.56297708	     16.33550516	    -48.34273205	    787.36385555	    -29.94352253	     23.50902224	    -45.00000000	     34.42238340	    -45.00000000	    -45.00000000	  -1170.82185542	  -3167.46154251	     23.17770711	    179.99999979	   1804.73159246	   -177.96181543	     12.78329917	     15.10209858	      4.28819307	     27.51974590	    -28.25973898	    -45.00000000	    -45.00000000	  -2447.43189132	   -985.34424935	     17.53574912	   -179.99999979	   1079.53996540	    538.59059098	     12.13946872	    -15.68047941
     13.86000000	    -37.71681230	     -9.52021084	     16.14326902	    -51.31895629	    788.81392967	    -29.93590178	     23.54726730	    -45.00000000	     34.49884111	    -45.00000000	    -45.00000000	  -1171.15502212	  -3167.41140958	     23.21678432	    179.99999979	   1804.69612131	   -178.37932582	     12.78923499	     15.18896874	      3.94560701	     27.64747386	    -28.09448794	    -45.00000000	    -45.00000000	  -2447.27545275	   -985.28900406	     17.69597977	   -179.99999979	   1079.68567691	    538.35046505	     12.32500544	    -15.68232795
     13.87000000	    -37.75130199	     -9.30565142	     15.75815423	    -54.22599156	    790.30570169	    -29.93301823	     23.50721395	    -45.00000000	     34.43394048	    -45.00000000	    -45.00000000	  -1171.32448919	  -3167.36314246	     23.26222122	    179.99999979	   1804.66746351	   -178.78209598	     12.80274755	     15.18041136	      3.89855482	     27.67758784	    -28.09123051	    -45.00000000	    -45.00000000	  -2447.17176958	   -985.20220654	     17.71498847	   -179.99999979	   1079.62363412	    538.07977030	     12.33656713	    -15.76876787
     13.88000000	    -37.79911737	     -9.03963848	     15.34434229	    -57.05696633	    791.84229404	    -29.93763429	     23.45319710	    -45.00000000	     34.36279948	    -45.00000000	    -45.00000000	  -1171.47984610	  -3167.31297723	     23.29909467	    179.99999979	   1804.62486912	   -179.16563984	     12.83431587	     15.16530349	      3.87673107	     27.67799785	    -28.09257904	    -45.00000000	    -45.00000000	  -2447.10234823	   -985.10612708	     17.73218966	   -179.99999979	   1079.52643131	    537.83394588	     12.30358348	    -15.87623700
     13.89000000	    -37.76634404	     -9.01773306	     15.09679802	    -59.80537798	    793.42724869	    -29.95248687	     23.49811972	    -45.00000000	     34.41833131	    -45.00000000	    -45.00000000	  -1171.74572742	  -3167.27690024	     23.35873478	    179.99999979	   1804.61702252	   -179.59427262	     12.85212642	     15.21510398	      3.63131449	     27.78710592	    -27.98770634	    -45.00000000	    -45.00000000	  -2446.91803746	   -985.03670746	     17.84372933	   -179.99999979	   1079.58243113	    537.66985854	     12.40863564	    -15.92237761
     13.90000000	    -37.83161159	     -8.70452235	     14.62876092	    -62.46277104	    795.06177960	    -29.97961067	     23.37791439	    -45.00000000	     34.26171431	    -45.00000000	    -45.00000000	  -1171.83742739	  -3167.19332156	     23.37915395	    179.99999979	   1804.52554166	   -179.95490269	     12.91993188	     15.14358358	      3.76456390	     27.73934888	    -28.09836104	    -45.00000000	    -45.00000000	  -2446.86138069	   -984.93668229	     17.77621138	   -179.99999979	   1079.35675685	    537.48188838	     12.24792789	    -16.08461412
     13.91000000	    -37.80678289	     -8.62782150	     14.35992166	    -65.02415734	    796.74784019	    -30.01998191	     23.39927618	    -45.00000000	     34.29328619	    -45.00000000	    -45.00000000	  -1172.09642100	  -3167.13195302	     23.44276998	    179.99999979	   1804.49436275	   -180.34205152	     12.98026422	     15.16455101	      3.52108283	     27.83419510	    -28.00723189	    -45.00000000	    -45.00000000	  -2446.71519126	   -984.83255507	     17.90841824	   -179.99999979	   1079.43245741	    537.39309429	     12.26664079	    -16.14139293
